<svg viewBox="0 0 300 209.9784" width="5000px" height="3499.6398925781255px" xmlns="http://www.w3.org/2000/svg" xmlns:xlink="http://www.w3.org/1999/xlink" preserveAspectRatio="none"><defs></defs><style>.companyName {fill:#EFEDE8;fill-opacity:1;}.icon1 {fill:#FF8038;fill-opacity:1;}.icon2 {fill:#E7240E;fill-opacity:1;}.icon3 {fill:#905330;fill-opacity:1;}</style><g opacity="1" transform="rotate(0 0 175.705)">
<svg width="300" height="34.2734" x="0" y="175.705" version="1.1" preserveAspectRatio="none" viewBox="3.44 -28.76 255.24 29.160000000000004">
  <g transform="matrix(1 0 0 1 0 0)" class="companyName"><path d="M3.44 0L3.44-26.40L15-26.40Q19.72-26.40 22.04-24.54Q24.36-22.68 24.36-19.20L24.36-19.20Q24.36-17 23.04-15.38Q21.72-13.76 19.32-13.36L19.32-13.36L19.32-13.32Q22.04-12.92 23.54-11.26Q25.04-9.60 25.04-7.24L25.04-7.24Q25.04-3.80 22.56-1.90Q20.08 0 15.40 0L15.40 0L3.44 0ZM8.80-15.32L14.24-15.32Q18.64-15.32 18.64-18.72L18.64-18.72Q18.64-22.12 14.24-22.12L14.24-22.12L8.80-22.12L8.80-15.32ZM8.80-4.16L14.92-4.16Q17.12-4.16 18.22-5.06Q19.32-5.96 19.32-7.64L19.32-7.64Q19.32-9.32 18.22-10.20Q17.12-11.08 14.92-11.08L14.92-11.08L8.80-11.08L8.80-4.16Z M35.84-26.40L35.84 0L30.32 0L30.32-26.40L35.84-26.40Z M65.32-7.28Q64.16-3.48 61.20-1.54Q58.24 0.40 54.12 0.40L54.12 0.40Q50.24 0.40 47.36-1.24Q44.48-2.88 42.94-5.94Q41.40-9 41.40-13.20L41.40-13.20Q41.40-17.40 42.94-20.46Q44.48-23.52 47.34-25.16Q50.20-26.80 54.04-26.80L54.04-26.80Q58.16-26.80 61.02-25.08Q63.88-23.36 64.96-19.96L64.96-19.96L59.96-17.84Q59.32-20.20 57.96-21.24Q56.60-22.28 54.28-22.28L54.28-22.28Q50.92-22.28 49.02-19.92Q47.12-17.56 47.12-13.20L47.12-13.20Q47.12-8.84 48.96-6.48Q50.80-4.12 54.16-4.12L54.16-4.12Q59-4.12 60.24-8.80L60.24-8.80L65.32-7.28Z M90.92-26.40L90.92-21.96L82.08-21.96L82.08 0L76.56 0L76.56-21.96L67.68-21.96L67.68-26.40L90.92-26.40Z M100.96-26.40L100.96 0L95.44 0L95.44-26.40L100.96-26.40Z M125.04 0L122.84-6.44L112.68-6.44L110.52 0L104.88 0L114.52-26.40L121.12-26.40L130.76 0L125.04 0ZM114.04-10.52L121.48-10.52L119-17.96L117.80-21.96L117.72-21.96L116.60-18.04L114.04-10.52Z M170.24-20.40Q173.32-20.40 175.34-18.52Q177.36-16.64 177.36-13.12L177.36-13.12L177.36 0L171.88 0L171.88-12.04Q171.88-14.12 170.96-15.10Q170.04-16.08 168.44-16.08L168.44-16.08Q166.52-16.08 165.28-14.68Q164.04-13.28 164.04-10.76L164.04-10.76L164.04 0L158.56 0L158.56-12.04Q158.56-14.12 157.64-15.10Q156.72-16.08 155.08-16.08L155.08-16.08Q153.28-16.08 151.98-14.70Q150.68-13.32 150.68-10.60L150.68-10.60L150.68 0L145.20 0L145.20-20L150.12-20L150.28-16.44Q151.28-18.40 153.02-19.40Q154.76-20.40 156.92-20.40L156.92-20.40Q159.16-20.40 160.90-19.36Q162.64-18.32 163.44-16.36L163.44-16.36Q164.40-18.32 166.24-19.36Q168.08-20.40 170.24-20.40L170.24-20.40Z M196.52-20L202.00-20L202.00 0L197.12 0L196.92-3.44Q195.00 0.40 189.92 0.40L189.92 0.40Q186.68 0.40 184.78-1.34Q182.88-3.08 182.88-6.76L182.88-6.76L182.88-20L188.36-20L188.36-8.16Q188.36-5.84 189.24-4.88Q190.12-3.92 191.84-3.92L191.84-3.92Q193.92-3.92 195.22-5.26Q196.52-6.60 196.52-9.28L196.52-9.28L196.52-20Z M215.52 0.40Q208.84 0.40 206.24-3.44L206.24-3.44L209.44-6.72Q210.24-5 211.74-4.30Q213.24-3.60 215.44-3.60L215.44-3.60Q217.20-3.60 218.16-4.08Q219.12-4.56 219.12-5.40L219.12-5.40Q219.12-6.08 218.22-6.56Q217.32-7.04 215.12-7.48L215.12-7.48Q210.52-8.40 208.66-9.90Q206.80-11.40 206.80-13.96L206.80-13.96Q206.80-15.64 207.84-17.12Q208.88-18.60 210.92-19.50Q212.96-20.40 215.80-20.40L215.80-20.40Q219.16-20.40 221.24-19.38Q223.32-18.36 224.72-16.16L224.72-16.16L221.32-13.28Q220.44-14.88 219.14-15.64Q217.84-16.40 215.88-16.40L215.88-16.40Q214.24-16.40 213.26-15.84Q212.28-15.28 212.28-14.48L212.28-14.48Q212.28-13.64 213.24-13.08Q214.20-12.52 216.64-12.04L216.64-12.04Q221.00-11.16 222.82-9.74Q224.64-8.32 224.64-5.80L224.64-5.80Q224.64-3 222.26-1.30Q219.88 0.40 215.52 0.40L215.52 0.40Z M231.76-22.88Q228.36-22.88 228.36-25.80L228.36-25.80Q228.36-28.76 231.76-28.76L231.76-28.76Q235.16-28.76 235.16-25.80L235.16-25.80Q235.16-22.88 231.76-22.88L231.76-22.88ZM234.48-20L234.48 0L229.00 0L229.00-20L234.48-20Z M249.44-20.40Q253.40-20.40 255.60-18.80Q257.80-17.20 258.60-14.52L258.60-14.52L253.48-12.68Q252.76-16.32 249.60-16.32L249.60-16.32Q247.24-16.32 245.98-14.70Q244.72-13.08 244.72-9.96L244.72-9.96Q244.72-6.84 246.00-5.26Q247.28-3.68 249.56-3.68L249.56-3.68Q253.08-3.68 253.72-7.24L253.72-7.24L258.68-5.64Q258.04-2.88 255.70-1.24Q253.36 0.40 249.64 0.40L249.64 0.40Q244.68 0.40 241.96-2.34Q239.24-5.08 239.24-10L239.24-10Q239.24-14.92 241.94-17.66Q244.64-20.40 249.44-20.40L249.44-20.40Z"></path></g>
</svg>
</g><g opacity="1" transform="rotate(0 75 0)">
<svg width="150" height="150" x="75" y="0" version="1.1" preserveAspectRatio="none" viewBox="0 0 24 24">
  <g transform="matrix(1 0 0 1 0 0)" class="icon1"><g><g><circle cx="12" cy="12" r="2"></circle><path d="M12,3c-4.962,0-9,4.038-9,9s4.038,9,9,9s9-4.038,9-9S16.962,3,12,3z M12,15c-1.654,0-3-1.346-3-3s1.346-3,3-3s3,1.346,3,3    S13.654,15,12,15z"></path></g><path d="M24,12c0-1.998-0.957-4.489-1.59-6.138c-0.123-0.32-0.256-0.667-0.347-0.926C23.171,4.68,24,3.685,24,2.5   C24,1.122,22.878,0,21.5,0c-1.185,0-2.18,0.829-2.436,1.937c-0.259-0.09-0.606-0.224-0.926-0.347C16.489,0.957,13.998,0,12,0   S7.511,0.957,5.862,1.59C5.541,1.714,5.193,1.848,4.937,1.938C4.681,0.829,3.686,0,2.5,0C1.122,0,0,1.122,0,2.5   c0,1.185,0.829,2.18,1.937,2.436C1.847,5.195,1.713,5.542,1.59,5.862C0.957,7.511,0,10.002,0,12s0.957,4.489,1.59,6.138   c0.123,0.32,0.256,0.667,0.347,0.926C0.829,19.32,0,20.315,0,21.5C0,22.878,1.122,24,2.5,24c1.185,0,2.18-0.829,2.436-1.937   c0.259,0.09,0.605,0.223,0.926,0.347C7.511,23.043,10.002,24,12,24s4.489-0.957,6.137-1.59c0.322-0.124,0.669-0.257,0.926-0.348   C19.319,23.171,20.314,24,21.5,24c1.378,0,2.5-1.122,2.5-2.5c0-1.185-0.829-2.18-1.937-2.436c0.09-0.259,0.224-0.606,0.347-0.926   C23.043,16.489,24,13.998,24,12z M2.15,2.15c0.18-0.19,0.52-0.19,0.7,0C2.95,2.25,3,2.37,3,2.5c0,0.13-0.05,0.26-0.14,0.35   C2.76,2.95,2.63,3,2.5,3C2.37,3,2.24,2.95,2.15,2.86C2.05,2.76,2,2.63,2,2.5C2,2.37,2.05,2.24,2.15,2.15z M2.85,21.85   C2.76,21.95,2.63,22,2.5,22c-0.13,0-0.26-0.05-0.35-0.15C2.05,21.76,2,21.63,2,21.5c0-0.13,0.05-0.26,0.15-0.35   c0.18-0.19,0.51-0.19,0.7,0C2.95,21.24,3,21.37,3,21.5C3,21.63,2.95,21.76,2.85,21.85z M21.85,21.85C21.76,21.95,21.63,22,21.5,22   c-0.13,0-0.26-0.05-0.35-0.15C21.05,21.76,21,21.63,21,21.5c0-0.13,0.05-0.25,0.14-0.35c0.19-0.19,0.53-0.19,0.71,0   c0.1,0.09,0.15,0.22,0.15,0.35C22,21.63,21.95,21.76,21.85,21.85z M12,22C6.486,22,2,17.514,2,12S6.486,2,12,2s10,4.486,10,10   S17.514,22,12,22z M21.85,2.85C21.76,2.95,21.63,3,21.5,3c-0.13,0-0.26-0.05-0.35-0.14C21.05,2.76,21,2.63,21,2.5   c0-0.13,0.05-0.26,0.15-0.35c0.18-0.19,0.52-0.19,0.7,0C21.95,2.24,22,2.37,22,2.5C22,2.63,21.95,2.76,21.85,2.85z"></path></g></g>
</svg>
</g></svg>